<svg width="116" height="25" viewBox="0 0 116 25" fill="none" xmlns="http://www.w3.org/2000/svg">
<g clip-path="url(#clip0_4099_60147)">
<mask id="mask0_4099_60147" style="mask-type:luminance" maskUnits="userSpaceOnUse" x="0" y="0" width="116" height="25">
<path d="M116 0.5H0V24.5H116V0.5Z" fill="white"></path>
</mask>
<g mask="url(#mask0_4099_60147)">
<path d="M44.383 0.5L38.4299 9.10553V0.5H31.0264V24.029H38.4299V15.5581L44.3153 24.029H53.4786L44.4829 11.8961L52.9049 0.5H44.383Z" fill="white"></path>
<mask id="mask1_4099_60147" style="mask-type:luminance" maskUnits="userSpaceOnUse" x="0" y="0" width="116" height="25">
<path d="M116 0.5H0V24.5H116V0.5Z" fill="white"></path>
</mask>
<g mask="url(#mask1_4099_60147)">
<path d="M69.712 7.08718V24.0291H62.6437V22.3471C62.0796 23.0872 61.4028 23.6286 60.6163 23.9778C59.8267 24.3239 58.9596 24.5001 58.012 24.5001C56.9065 24.5001 55.8816 24.2694 54.934 23.8112C53.9864 23.3531 53.1709 22.7187 52.4812 21.9114C51.7947 21.104 51.2532 20.1589 50.8567 19.0696C50.4635 17.9835 50.2637 16.8108 50.2637 15.5581C50.2637 14.3054 50.4603 13.1008 50.8567 12.0115C51.2499 10.9254 51.7914 9.98345 52.4812 9.1889C53.1677 8.39434 53.9864 7.76639 54.934 7.30504C55.8816 6.84689 56.9065 6.61621 58.012 6.61621C58.9596 6.61621 59.8267 6.78922 60.6163 7.13844C61.406 7.48766 62.0828 8.02911 62.6437 8.76919V7.08718H69.712ZM57.3706 15.5581C57.3706 16.3207 57.6414 16.9486 58.1829 17.442C58.7244 17.9354 59.3561 18.1821 60.0781 18.1821C60.8 18.1821 61.4318 17.9354 61.9733 17.442C62.5147 16.9486 62.7855 16.3207 62.7855 15.5581C62.7855 14.7956 62.5147 14.1677 61.9733 13.6743C61.4318 13.1809 60.8 12.9342 60.0781 12.9342C59.3561 12.9342 58.7244 13.1809 58.1829 13.6743C57.6414 14.1677 57.3706 14.7956 57.3706 15.5581Z" fill="white"></path>
<path d="M83.0964 14.2808C82.8031 14.1238 82.5098 14.0245 82.2165 13.9796C81.9232 13.9348 81.6525 13.9124 81.4043 13.9124C80.186 13.9124 79.2513 14.2872 78.597 15.0369C77.9427 15.7866 77.6171 16.9144 77.6171 18.4138V24.0269H70.5166V7.08817H77.5849V9.67688C78.0813 8.69009 78.6904 7.95321 79.4124 7.45981C80.1344 6.96642 81.0369 6.71973 82.1166 6.71973C82.2971 6.71973 82.4776 6.73254 82.6581 6.75177C82.8386 6.77419 82.9836 6.80943 83.0964 6.85108V14.2808Z" fill="white"></path>
<path d="M102.438 7.08718V24.0291H95.3693V22.3471C94.8052 23.0872 94.1284 23.6286 93.3419 23.9778C92.5522 24.3239 91.6852 24.5001 90.7376 24.5001C89.6321 24.5001 88.6072 24.2694 87.6596 23.8112C86.712 23.3531 85.8965 22.7187 85.2068 21.9114C84.5202 21.104 83.9788 20.1589 83.5823 19.0696C83.1891 17.9835 82.9893 16.8108 82.9893 15.5581C82.9893 14.3054 83.1859 13.1008 83.5823 12.0115C83.9755 10.9254 84.517 9.98345 85.2068 9.1889C85.8933 8.39434 86.712 7.76639 87.6596 7.30504C88.6072 6.84689 89.6321 6.61621 90.7376 6.61621C91.6852 6.61621 92.5522 6.78922 93.3419 7.13844C94.1316 7.48766 94.8084 8.02911 95.3693 8.76919V7.08718H102.438ZM90.0962 15.5581C90.0962 16.3207 90.367 16.9486 90.9085 17.442C91.4499 17.9354 92.0817 18.1821 92.8037 18.1821C93.5256 18.1821 94.1574 17.9354 94.6989 17.442C95.2403 16.9486 95.5111 16.3207 95.5111 15.5581C95.5111 14.7956 95.2403 14.1677 94.6989 13.6743C94.1574 13.1809 93.5256 12.9342 92.8037 12.9342C92.0817 12.9342 91.4499 13.1809 90.9085 13.6743C90.367 14.1677 90.0962 14.7956 90.0962 15.5581Z" fill="white"></path>
<path d="M112.211 16.1634C112.211 16.9035 112.386 17.4289 112.737 17.7429C113.085 18.0569 113.588 18.2139 114.242 18.2139C114.558 18.2139 114.867 18.1626 115.174 18.0633C115.477 17.964 115.754 17.8326 116.002 17.6756V23.6252C115.551 23.8494 114.97 24.0513 114.261 24.2307C113.552 24.4101 112.656 24.4998 111.573 24.4998C109.588 24.4998 108.018 23.9167 106.855 22.7505C105.694 21.5843 105.114 19.9376 105.114 17.8102V12.7353H102.916V7.08693H105.114V2.31641H112.215V7.09013H116.002V12.7385H112.215V16.1666L112.211 16.1634Z" fill="white"></path>
<path d="M24.9759 0.5H0V8.2501H24.9759V0.5Z" fill="white"></path>
<path d="M8.03846 8.91113L0 14.4538V24.0717L12.4864 14.6428L24.9759 24.0717V14.5179L16.9278 8.91113H8.03846Z" fill="white"></path>
</g>
</g>
</g>
<defs>
<clipPath id="clip0_4099_60147">
<rect width="116" height="24" fill="white" transform="translate(0 0.5)"></rect>
</clipPath>
</defs>
</svg>